Coordinates
version=1
nRows=8
nColumns=63
inDegrees=yes

Units are S.I. units (second, meters, Newtons, ...)
If the header above contains a line with 'inDegrees', this indicates whether rotational values are in degrees (yes) or radians (no).

endheader
time	pelvis_tilt	pelvis_list	pelvis_rotation	pelvis_tx	pelvis_ty	pelvis_tz	hip_flexion_r	hip_adduction_r	hip_rotation_r	knee_angle_r	knee_angle_r_beta	ankle_angle_r	subtalar_angle_r	mtp_angle_r	hip_flexion_l	hip_adduction_l	hip_rotation_l	knee_angle_l	knee_angle_l_beta	ankle_angle_l	subtalar_angle_l	mtp_angle_l	L5_S1_Flex_Ext	L5_S1_Lat_Bending	L5_S1_axial_rotation	L4_L5_Flex_Ext	L4_L5_Lat_Bending	L4_L5_axial_rotation	L3_L4_Flex_Ext	L3_L4_Lat_Bending	L3_L4_axial_rotation	L2_L3_Flex_Ext	L2_L3_Lat_Bending	L2_L3_axial_rotation	L1_L2_Flex_Ext	L1_L2_Lat_Bending	L1_L2_axial_rotation	L1_T12_Flex_Ext	L1_T12_Lat_Bending	L1_T12_axial_rotation	Abs_r3	Abs_r2	Abs_r1	Abs_t1	Abs_t2	neck_flexion	neck_bending	neck_rotation	arm_flex_r	arm_add_r	arm_rot_r	elbow_flex_r	pro_sup_r	wrist_flex_r	wrist_dev_r	arm_flex_l	arm_add_l	arm_rot_l	elbow_flex_l	pro_sup_l	wrist_flex_l	wrist_dev_l
1.152542	-4.112067	-0.170243	95.456598	0.080256	0.947314	0.500916	-3.530309	-2.644912	-8.964078	13.185737	0.230135	25.378443	14.482952	0.000000	-7.867263	3.037846	7.181806	1.026292	0.017912	19.991992	-12.979135	0.000000	-0.061218	0.107314	-0.445168	-0.113688	0.142728	-0.472991	-0.100575	0.260923	-0.472991	-0.069966	0.260923	-0.389522	-0.056847	0.218835	-0.361699	-0.034980	0.166229	-0.333876	-0.437275	1.213958	-2.475890	0.000000	0.000000	9.468085	1.888622	4.153514	-0.961347	-19.957738	34.012208	79.441442	85.329315	19.593049	15.951949	-3.821459	-15.204611	22.927782	61.145714	82.618900	6.661744	4.199808
1.169492	-4.229524	-0.242461	94.584465	0.081724	0.947178	0.500633	-3.284179	-2.849470	-8.057210	13.252169	0.231294	25.630342	14.599206	0.000000	-7.760303	3.290950	6.027889	1.094717	0.019106	20.307178	-12.528371	0.000000	-0.058774	0.098028	-0.271664	-0.109149	0.130377	-0.288643	-0.096560	0.238345	-0.288643	-0.067173	0.238345	-0.237706	-0.054577	0.199899	-0.220727	-0.033583	0.151845	-0.203748	-0.419816	1.108913	-1.510915	0.000000	0.000000	8.977657	2.051268	3.544571	-2.413167	-20.934968	33.377441	82.627524	86.218052	21.730802	15.835225	-3.850405	-16.012697	23.022957	60.548352	85.202944	5.664224	4.896137
1.186441	-4.363383	-0.283257	93.673239	0.083282	0.947150	0.499988	-3.126053	-3.052741	-7.078609	13.242125	0.231119	25.816181	14.707777	0.000000	-7.703210	3.553070	4.695300	1.174692	0.020502	20.672417	-11.850756	0.000000	-0.057065	0.086734	-0.099384	-0.105975	0.115357	-0.105595	-0.093751	0.210886	-0.105595	-0.065219	0.210886	-0.086961	-0.052990	0.176869	-0.080749	-0.032607	0.134352	-0.074538	-0.407607	0.981158	-0.552742	0.000000	0.000000	8.515482	2.159854	2.757451	-3.971541	-21.871681	32.779259	85.955771	87.011737	24.387815	15.358634	-3.928610	-16.834772	23.421483	59.815270	87.533216	5.164140	5.938610
1.203390	-4.504609	-0.284191	92.750104	0.084908	0.947218	0.498993	-3.064434	-3.242868	-6.045005	13.160987	0.229703	25.942499	14.796710	0.000000	-7.705932	3.811126	3.246144	1.271321	0.022189	21.059887	-11.007439	0.000000	-0.058127	0.074093	0.059118	-0.107947	0.098543	0.062813	-0.095496	0.180149	0.062813	-0.066433	0.180149	0.051728	-0.053976	0.151090	0.048034	-0.033214	0.114770	0.044339	-0.415193	0.838151	0.328798	0.000000	0.000000	8.129923	2.230691	1.831055	-5.547612	-22.727284	32.261745	89.345516	87.696188	27.437739	14.629597	-4.126221	-17.633626	23.964342	59.012239	89.404015	5.131286	7.352630
1.220339	-4.640913	-0.251622	91.848909	0.086539	0.947367	0.497680	-3.094508	-3.408740	-5.004977	13.011680	0.227097	25.993340	14.878549	0.000000	-7.761861	4.048327	1.723962	1.385577	0.024183	21.452005	-10.017816	0.000000	-0.061368	0.061864	0.199614	-0.113966	0.082279	0.212090	-0.100821	0.150416	0.212090	-0.070137	0.150416	0.174663	-0.056986	0.126153	0.162187	-0.035066	0.095828	0.149711	-0.438345	0.699820	1.110195	0.000000	0.000000	7.836238	2.226120	0.752492	-7.094176	-23.472618	31.845610	92.695761	88.214221	30.743516	13.732418	-4.401730	-18.408633	24.820551	58.135240	90.546070	5.157557	8.896782
1.237288	-4.765464	-0.188152	91.000127	0.088125	0.947584	0.496156	-3.204390	-3.545765	-4.005043	12.813182	0.223632	25.977673	14.945847	0.000000	-7.864370	4.256177	0.168308	1.509779	0.026351	21.834304	-8.906084	0.000000	-0.068546	0.050998	0.316801	-0.127297	0.067827	0.336601	-0.112615	0.123996	0.336601	-0.078342	0.123996	0.277201	-0.063652	0.103994	0.257401	-0.039167	0.078995	0.237601	-0.489620	0.576896	1.761954	0.000000	0.000000	7.669138	2.181326	-0.402701	-8.550429	-24.080867	31.546009	95.905717	88.599596	34.184399	12.788264	-4.750296	-19.115017	25.897690	57.209794	91.053283	5.199608	10.434799
1.254237	-4.875053	-0.108861	90.246657	0.089623	0.947837	0.494549	-3.370362	-3.651534	-3.106577	12.583402	0.219622	25.896256	14.991471	0.000000	-7.984719	4.426264	-1.353009	1.648502	0.028772	22.225867	-7.695480	0.000000	-0.079611	0.041547	0.407123	-0.147846	0.055258	0.432568	-0.130794	0.101018	0.432568	-0.090988	0.101018	0.356233	-0.073927	0.084723	0.330788	-0.045490	0.064356	0.305342	-0.568657	0.469989	2.264297	0.000000	0.000000	7.636366	2.074898	-1.631454	-9.875678	-24.537337	31.383661	98.881533	88.862473	37.580782	11.923353	-5.146252	-19.731756	27.148039	56.235138	91.001201	5.225206	11.774487
1.271186	-4.955795	-0.029013	89.611309	0.091030	0.948101	0.493003	-3.556041	-3.714934	-2.351635	12.355543	0.215645	25.757748	15.023472	0.000000	-8.093762	4.540271	-2.789177	1.800604	0.031426	22.634106	-6.431953	0.000000	-0.094470	0.034213	0.470487	-0.175440	0.045503	0.499892	-0.155205	0.083185	0.499892	-0.107970	0.083185	0.411676	-0.087725	0.069767	0.382271	-0.053980	0.052995	0.352865	-0.674791	0.387021	2.616707	0.000000	0.000000	7.737301	1.918967	-2.949800	-11.020615	-24.847122	31.389129	101.537484	89.015264	40.772437	11.221276	-5.562165	-20.233651	28.500841	55.192344	90.502524	5.248512	12.739146
